<svg width="18" height="18" viewBox="0 0 18 18" fill="none" xmlns="http://www.w3.org/2000/svg">
<path id="Vector" fill-rule="evenodd" clip-rule="evenodd" d="M9.00247 0.0159427C4.04121 0.0159427 0.0183105 3.34142 0.0183105 7.46514C0.0183105 10.0191 1.57551 12.2538 3.9414 13.6106L2.9432 17.5108C2.92378 17.5876 2.92703 17.6689 2.95241 17.7437C2.97778 17.8185 3.02404 17.8831 3.085 17.929C3.14596 17.9748 3.21871 17.9997 3.29326 18C3.36792 18.0004 3.44079 17.9763 3.5022 17.9312L7.87449 14.8398C8.24386 14.8769 8.61817 14.8983 8.99754 14.8983C13.9588 14.8983 17.9817 11.5728 17.9817 7.44908C17.9817 3.32547 13.9588 0 8.99754 0" fill="black"/>
</svg>
